<svg width="1165" height="304" viewBox="0 0 1165 304" fill="none" xmlns="http://www.w3.org/2000/svg">
<path d="M308.498 74.802C308.758 75.686 308.888 76.83 308.888 78.234C306.496 78.078 303.376 78 299.528 78C295.836 78 292.664 78.078 290.012 78.234C290.012 76.986 290.168 75.868 290.48 74.88C292.456 74.672 293.782 74.23 294.458 73.554C295.134 72.878 295.472 71.63 295.472 69.81C295.472 68.77 295.394 67.47 295.238 65.91L292.43 39.156L276.284 78.156C275.4 78.52 274.334 78.702 273.086 78.702L254.912 39.234L252.416 64.272C252.26 65.832 252.182 67.184 252.182 68.328C252.182 70.72 252.572 72.384 253.352 73.32C254.184 74.204 255.562 74.724 257.486 74.88C257.746 75.764 257.876 76.882 257.876 78.234C255.38 78.078 252.598 78 249.53 78C246.462 78 243.862 78.078 241.73 78.234C241.73 76.882 241.86 75.764 242.12 74.88C243.576 74.724 244.694 74.36 245.474 73.788C246.254 73.216 246.852 72.176 247.268 70.668C247.736 69.108 248.126 66.742 248.438 63.57L250.934 35.802C250.986 35.334 251.012 34.71 251.012 33.93C251.012 31.902 250.596 30.472 249.764 29.64C248.932 28.808 247.58 28.392 245.708 28.392C245.448 27.56 245.318 26.442 245.318 25.038C246.878 25.194 248.854 25.272 251.246 25.272C253.17 25.272 255.146 25.194 257.174 25.038L276.674 68.172L293.678 25.038C295.446 25.194 297.474 25.272 299.762 25.272C301.634 25.272 303.61 25.194 305.69 25.038C305.69 26.286 305.56 27.404 305.3 28.392C303.532 28.392 302.18 28.834 301.244 29.718C300.36 30.602 299.918 32.136 299.918 34.32C299.918 35.152 299.944 35.802 299.996 36.27L302.804 64.896C303.064 67.496 303.402 69.498 303.818 70.902C304.234 72.254 304.806 73.216 305.534 73.788C306.262 74.36 307.25 74.698 308.498 74.802ZM340.062 78.702C335.018 78.702 330.546 77.532 326.646 75.192C322.746 72.8 319.704 69.55 317.52 65.442C315.388 61.282 314.322 56.628 314.322 51.48C314.322 46.28 315.44 41.652 317.676 37.596C319.964 33.488 323.058 30.29 326.958 28.002C330.91 25.714 335.278 24.57 340.062 24.57C345.002 24.57 349.422 25.714 353.322 28.002C357.274 30.238 360.342 33.41 362.526 37.518C364.762 41.574 365.88 46.228 365.88 51.48C365.88 56.576 364.762 61.204 362.526 65.364C360.342 69.472 357.274 72.722 353.322 75.114C349.422 77.506 345.002 78.702 340.062 78.702ZM341.622 74.88C344.898 74.88 347.758 73.944 350.202 72.072C352.698 70.2 354.596 67.652 355.896 64.428C357.196 61.152 357.846 57.512 357.846 53.508C357.846 48.88 356.988 44.642 355.272 40.794C353.608 36.946 351.294 33.904 348.33 31.668C345.366 29.432 342.064 28.314 338.424 28.314C335.356 28.314 332.6 29.198 330.156 30.966C327.712 32.734 325.788 35.204 324.384 38.376C323.032 41.548 322.356 45.214 322.356 49.374C322.356 53.846 323.11 58.032 324.618 61.932C326.178 65.832 328.414 68.978 331.326 71.37C334.238 73.71 337.67 74.88 341.622 74.88ZM436.528 25.272C439.388 25.272 441.858 25.194 443.938 25.038C443.938 26.234 443.756 27.352 443.392 28.392C442.456 28.6 441.676 29.042 441.052 29.718C440.428 30.394 439.804 31.486 439.18 32.994C438.556 34.45 437.776 36.686 436.84 39.702L424.672 78.234C423.84 78.546 422.8 78.702 421.552 78.702C416.352 63.934 411.282 50.128 406.342 37.284L392.614 78.234C391.782 78.546 390.664 78.702 389.26 78.702C384.632 63.57 380.264 49.79 376.156 37.362C375.168 34.45 374.388 32.422 373.816 31.278C373.296 30.134 372.776 29.406 372.256 29.094C371.788 28.73 371.034 28.496 369.994 28.392C369.734 27.56 369.604 26.442 369.604 25.038C372.1 25.194 375.038 25.272 378.418 25.272C381.85 25.272 384.996 25.194 387.856 25.038C387.856 26.234 387.726 27.352 387.466 28.392C385.594 28.496 384.294 28.73 383.566 29.094C382.838 29.406 382.474 30.056 382.474 31.044C382.474 32.084 382.916 33.878 383.8 36.426C387.648 48.386 390.69 58.084 392.926 65.52L406.654 25.038C407.33 24.778 408.474 24.648 410.086 24.648C414.766 36.868 419.732 50.544 424.984 65.676L433.252 39.468C434.084 36.66 434.5 34.58 434.5 33.228C434.5 31.72 434.084 30.602 433.252 29.874C432.472 29.094 431.224 28.6 429.508 28.392C429.144 27.456 428.962 26.338 428.962 25.038C431.146 25.194 433.668 25.272 436.528 25.272ZM490.607 74.88C490.919 75.92 491.075 77.038 491.075 78.234C487.955 78.078 484.991 78 482.183 78C479.427 78 476.489 78.078 473.369 78.234C473.369 76.726 473.551 75.608 473.915 74.88C475.371 74.724 476.385 74.49 476.957 74.178C477.581 73.866 477.893 73.346 477.893 72.618C477.893 71.994 477.503 70.72 476.723 68.796L473.291 60.84C465.023 60.84 458.159 60.944 452.699 61.152L450.593 66.534C449.761 68.718 449.345 70.434 449.345 71.682C449.345 72.722 449.657 73.502 450.281 74.022C450.957 74.49 451.997 74.776 453.401 74.88C453.765 75.764 453.947 76.882 453.947 78.234C452.179 78.078 449.709 78 446.537 78C445.185 78 443.027 78.078 440.063 78.234C440.063 76.934 440.245 75.842 440.609 74.958C441.961 74.698 443.027 74.022 443.807 72.93C444.587 71.838 445.601 69.706 446.849 66.534L462.995 25.116C463.879 24.908 464.893 24.804 466.037 24.804L484.601 67.392C485.901 70.304 486.915 72.228 487.643 73.164C488.423 74.1 489.411 74.672 490.607 74.88ZM471.809 57.33L465.881 43.446C464.321 39.858 463.177 37.024 462.449 34.944C461.877 36.712 460.889 39.52 459.485 43.368L454.103 57.33H471.809ZM533.827 67.08C535.023 69.108 536.037 70.616 536.869 71.604C537.701 72.592 538.663 73.32 539.755 73.788C540.899 74.256 542.433 74.542 544.357 74.646C544.357 76.154 544.253 77.272 544.045 78C538.741 78 534.659 78.234 531.799 78.702C529.823 75.53 528.081 72.462 526.573 69.498L525.637 67.782C524.025 64.87 522.543 62.452 521.191 60.528C519.891 58.552 518.149 56.394 515.965 54.054L513.547 54.132C512.767 54.132 511.753 54.08 510.505 53.976V68.094C510.505 70.694 510.843 72.462 511.519 73.398C512.247 74.282 513.625 74.776 515.653 74.88C515.913 75.66 516.043 76.778 516.043 78.234C513.807 78.078 510.713 78 506.761 78C502.861 78 499.741 78.078 497.401 78.234C497.401 76.83 497.531 75.712 497.791 74.88C499.923 74.776 501.353 74.282 502.081 73.398C502.809 72.462 503.173 70.694 503.173 68.094V35.178C503.173 32.578 502.783 30.81 502.003 29.874C501.275 28.886 499.871 28.392 497.791 28.392C497.531 27.56 497.401 26.468 497.401 25.116C499.481 25.22 502.601 25.272 506.761 25.272C509.621 25.272 511.779 25.246 513.235 25.194L519.787 25.116C525.403 25.116 529.641 26.338 532.501 28.782C535.361 31.174 536.791 34.32 536.791 38.22C536.791 41.652 535.621 44.616 533.281 47.112C530.993 49.608 527.795 51.376 523.687 52.416C525.507 54.34 527.041 56.238 528.289 58.11C529.537 59.93 531.383 62.92 533.827 67.08ZM510.505 50.388C511.753 50.544 512.897 50.622 513.937 50.622C518.461 50.622 522.127 49.66 524.935 47.736C527.743 45.76 529.147 42.848 529.147 39C529.147 35.724 528.107 33.176 526.027 31.356C523.999 29.484 520.749 28.548 516.277 28.548C514.405 28.548 512.481 28.756 510.505 29.172V50.388ZM567.492 78.702C564.476 78.702 561.772 78.312 559.38 77.532C556.988 76.7 554.414 75.426 551.658 73.71C552.126 70.798 552.36 67.106 552.36 62.634C553.556 62.322 554.96 62.166 556.572 62.166C556.78 66.326 557.82 69.498 559.692 71.682C561.616 73.866 564.58 74.958 568.584 74.958C571.964 74.958 574.46 74.23 576.072 72.774C577.736 71.266 578.568 69.29 578.568 66.846C578.568 64.818 578.048 63.102 577.008 61.698C575.968 60.294 574.694 59.15 573.186 58.266C571.678 57.33 569.572 56.238 566.868 54.99C563.748 53.482 561.252 52.13 559.38 50.934C557.508 49.738 555.896 48.152 554.544 46.176C553.244 44.148 552.594 41.626 552.594 38.61C552.594 34.242 553.998 30.81 556.806 28.314C559.614 25.818 563.436 24.57 568.272 24.57C570.82 24.57 573.264 24.908 575.604 25.584C577.944 26.208 579.842 27.014 581.298 28.002C581.298 32.63 581.454 36.062 581.766 38.298C580.622 38.766 579.166 39 577.398 39C576.67 34.736 575.578 31.85 574.122 30.342C572.666 28.782 570.69 28.002 568.194 28.002C565.438 28.002 563.28 28.678 561.72 30.03C560.16 31.382 559.38 33.28 559.38 35.724C559.38 37.752 559.9 39.494 560.94 40.95C562.032 42.406 563.332 43.602 564.84 44.538C566.4 45.474 568.532 46.618 571.236 47.97C574.304 49.426 576.748 50.752 578.568 51.948C580.44 53.144 582.026 54.704 583.326 56.628C584.626 58.552 585.276 60.918 585.276 63.726C585.276 66.43 584.626 68.926 583.326 71.214C582.078 73.45 580.102 75.27 577.398 76.674C574.746 78.026 571.444 78.702 567.492 78.702ZM617.861 78.702C612.817 78.702 608.345 77.532 604.445 75.192C600.545 72.8 597.503 69.55 595.319 65.442C593.187 61.282 592.121 56.628 592.121 51.48C592.121 46.28 593.239 41.652 595.475 37.596C597.763 33.488 600.857 30.29 604.757 28.002C608.709 25.714 613.077 24.57 617.861 24.57C622.801 24.57 627.221 25.714 631.121 28.002C635.073 30.238 638.141 33.41 640.325 37.518C642.561 41.574 643.679 46.228 643.679 51.48C643.679 56.576 642.561 61.204 640.325 65.364C638.141 69.472 635.073 72.722 631.121 75.114C627.221 77.506 622.801 78.702 617.861 78.702ZM619.421 74.88C622.697 74.88 625.557 73.944 628.001 72.072C630.497 70.2 632.395 67.652 633.695 64.428C634.995 61.152 635.645 57.512 635.645 53.508C635.645 48.88 634.787 44.642 633.071 40.794C631.407 36.946 629.093 33.904 626.129 31.668C623.165 29.432 619.863 28.314 616.223 28.314C613.155 28.314 610.399 29.198 607.955 30.966C605.511 32.734 603.587 35.204 602.183 38.376C600.831 41.548 600.155 45.214 600.155 49.374C600.155 53.846 600.909 58.032 602.417 61.932C603.977 65.832 606.213 68.978 609.125 71.37C612.037 73.71 615.469 74.88 619.421 74.88ZM693.711 25.272C696.519 25.272 698.989 25.194 701.121 25.038C701.121 26.338 700.991 27.456 700.731 28.392C699.535 28.392 698.599 28.73 697.923 29.406C697.299 30.082 696.831 31.226 696.519 32.838C696.259 34.398 696.129 36.608 696.129 39.468V78C695.297 78.312 694.179 78.468 692.775 78.468L660.561 36.426V63.414C660.561 66.43 660.717 68.744 661.029 70.356C661.341 71.968 661.887 73.138 662.667 73.866C663.447 74.542 664.539 74.88 665.943 74.88C666.203 75.66 666.333 76.778 666.333 78.234C663.993 78.078 661.419 78 658.611 78C655.387 78 652.787 78.078 650.811 78.234C650.811 76.778 650.941 75.66 651.201 74.88C652.605 74.88 653.697 74.542 654.477 73.866C655.257 73.138 655.803 71.968 656.115 70.356C656.427 68.744 656.583 66.43 656.583 63.414V31.2L656.271 30.81C655.543 29.926 654.841 29.328 654.165 29.016C653.541 28.704 652.553 28.496 651.201 28.392C650.941 27.456 650.811 26.338 650.811 25.038C652.371 25.194 654.295 25.272 656.583 25.272C658.663 25.272 660.405 25.194 661.809 25.038L692.151 65.286V39.468C692.151 36.556 691.995 34.32 691.683 32.76C691.371 31.2 690.825 30.082 690.045 29.406C689.265 28.73 688.173 28.392 686.769 28.392C686.509 26.884 686.379 25.766 686.379 25.038C688.615 25.194 691.059 25.272 693.711 25.272Z" fill="#040709"/>
<g clip-path="url(#clip0_231_527)">
<path d="M85 29L0 50.25V156.5L85 199L170 156.5V50.25L85 29ZM153 56.625L90.3125 80L20.1875 56.625L85 39.625L153 56.625ZM10.625 150.125V64.0625L85 89.5625V187.312L10.625 150.125Z" fill="#2E8B57"/>
</g>
<path d="M279.32 154.216C293.4 154.216 305.005 157.16 314.136 163.048C323.352 168.851 327.96 179.688 327.96 195.56C327.96 213.565 322.797 225.64 312.472 231.784C302.232 237.928 291.181 241 279.32 241C263.619 241 252.568 241.128 246.168 241.384C246.168 238.909 246.381 237.075 246.808 235.88C249.197 235.709 250.989 235.283 252.184 234.6C253.464 233.917 254.36 232.723 254.872 231.016C255.469 229.224 255.768 226.664 255.768 223.336V170.728C255.768 166.461 255.128 163.603 253.848 162.152C252.653 160.616 250.349 159.763 246.936 159.592C246.509 158.397 246.296 156.563 246.296 154.088C250.221 154.344 256.195 154.472 264.216 154.472L271.768 154.344C273.475 154.259 275.992 154.216 279.32 154.216ZM279.32 235.24C290.413 235.24 299.075 232.381 305.304 226.664C311.619 220.861 314.776 211.133 314.776 197.48C314.776 188.691 313.027 181.437 309.528 175.72C306.115 169.917 301.592 165.693 295.96 163.048C290.328 160.403 284.099 159.08 277.272 159.08C275.736 159.08 274.029 159.208 272.152 159.464C270.36 159.635 268.909 159.891 267.8 160.232V223.336C267.8 226.664 268.099 229.139 268.696 230.76C269.293 232.381 270.403 233.533 272.024 234.216C273.645 234.899 276.077 235.24 279.32 235.24ZM420.052 222.824C422.356 223.251 424.233 224.189 425.684 225.64C424.148 229.651 422.996 234.813 422.228 241.128L397.524 241C385.236 241 375.337 241.085 367.828 241.256C367.828 238.611 368.041 236.691 368.468 235.496C370.601 235.325 372.18 234.984 373.204 234.472C374.313 233.96 375.081 233.021 375.508 231.656C375.935 230.291 376.148 228.243 376.148 225.512V191.848C376.148 189.373 375.892 187.496 375.38 186.216C374.953 184.936 374.185 184.04 373.076 183.528C372.052 183.016 370.516 182.675 368.468 182.504C368.041 181.224 367.828 179.304 367.828 176.744C373.972 176.915 380.671 177 387.924 177C403.625 177 414.121 176.915 419.412 176.744C420.351 184.765 421.161 190.056 421.844 192.616C420.393 193.555 418.473 194.024 416.084 194.024C415.743 190.44 414.249 187.624 411.604 185.576C409.044 183.528 404.479 182.504 397.908 182.504H387.924V206.056H394.324C398.847 206.056 401.961 205.544 403.668 204.52C405.46 203.496 406.399 201.619 406.484 198.888C408.361 198.291 410.324 197.992 412.372 197.992C412.201 200.125 412.116 203.709 412.116 208.744C412.116 214.205 412.201 217.917 412.372 219.88C410.068 219.88 408.191 219.624 406.74 219.112C406.484 216.296 405.46 214.376 403.668 213.352C401.961 212.328 398.847 211.816 394.324 211.816H387.924V225.256C387.924 227.987 388.18 230.077 388.692 231.528C389.289 232.893 390.271 233.875 391.636 234.472C393.087 234.984 395.22 235.24 398.036 235.24H398.804C403.753 235.24 407.551 234.813 410.196 233.96C412.927 233.107 414.932 231.869 416.212 230.248C417.577 228.541 418.857 226.067 420.052 222.824ZM525.635 177C528.963 177 532.76 176.915 537.027 176.744C537.027 179.048 536.814 180.883 536.387 182.248C532.974 182.845 529.859 186.387 527.043 192.872C520.302 207.72 512.451 223.805 503.491 241.128C502.211 241.555 500.547 241.768 498.499 241.768C490.563 224.531 482.798 208.573 475.203 193.896C473.326 190.141 471.96 187.624 471.107 186.344C470.339 184.979 469.528 183.997 468.675 183.4C467.907 182.803 466.84 182.419 465.475 182.248C465.048 181.053 464.835 179.219 464.835 176.744C468.931 176.915 473.624 177 478.915 177C482.243 177 486.979 176.915 493.123 176.744C493.123 178.877 492.91 180.712 492.483 182.248C490.264 182.419 488.6 182.76 487.491 183.272C486.467 183.784 485.955 184.637 485.955 185.832C485.955 187.368 486.766 189.587 488.387 192.488C494.36 203.581 499.694 214.504 504.387 225.256C511.384 211.603 516.632 200.851 520.131 193C521.155 190.696 521.667 188.733 521.667 187.112C521.667 184.211 519.875 182.589 516.291 182.248C515.864 181.053 515.651 179.219 515.651 176.744C519.918 176.915 523.246 177 525.635 177ZM630.377 222.824C632.681 223.251 634.558 224.189 636.009 225.64C634.473 229.651 633.321 234.813 632.553 241.128L607.849 241C595.561 241 585.662 241.085 578.153 241.256C578.153 238.611 578.366 236.691 578.793 235.496C580.926 235.325 582.505 234.984 583.529 234.472C584.638 233.96 585.406 233.021 585.833 231.656C586.26 230.291 586.473 228.243 586.473 225.512V191.848C586.473 189.373 586.217 187.496 585.705 186.216C585.278 184.936 584.51 184.04 583.401 183.528C582.377 183.016 580.841 182.675 578.793 182.504C578.366 181.224 578.153 179.304 578.153 176.744C584.297 176.915 590.996 177 598.249 177C613.95 177 624.446 176.915 629.737 176.744C630.676 184.765 631.486 190.056 632.169 192.616C630.718 193.555 628.798 194.024 626.409 194.024C626.068 190.44 624.574 187.624 621.929 185.576C619.369 183.528 614.804 182.504 608.233 182.504H598.249V206.056H604.649C609.172 206.056 612.286 205.544 613.993 204.52C615.785 203.496 616.724 201.619 616.809 198.888C618.686 198.291 620.649 197.992 622.697 197.992C622.526 200.125 622.441 203.709 622.441 208.744C622.441 214.205 622.526 217.917 622.697 219.88C620.393 219.88 618.516 219.624 617.065 219.112C616.809 216.296 615.785 214.376 613.993 213.352C612.286 212.328 609.172 211.816 604.649 211.816H598.249V225.256C598.249 227.987 598.505 230.077 599.017 231.528C599.614 232.893 600.596 233.875 601.961 234.472C603.412 234.984 605.545 235.24 608.361 235.24H609.129C614.078 235.24 617.876 234.813 620.521 233.96C623.252 233.107 625.257 231.869 626.537 230.248C627.902 228.541 629.182 226.067 630.377 222.824ZM710.104 235.24C714.115 235.24 717.272 234.856 719.576 234.088C721.965 233.235 723.843 231.955 725.208 230.248C726.659 228.456 728.024 225.981 729.304 222.824C731.608 223.251 733.485 224.189 734.936 225.64C733.4 229.651 732.248 234.813 731.48 241.128L708.824 241C696.536 241 686.637 241.085 679.128 241.256C679.128 238.611 679.341 236.691 679.768 235.496C681.816 235.325 683.395 234.984 684.504 234.472C685.613 233.96 686.381 233.021 686.808 231.656C687.32 230.291 687.576 228.243 687.576 225.512V191.848C687.576 189.373 687.32 187.496 686.808 186.216C686.381 184.936 685.613 184.04 684.504 183.528C683.48 183.016 681.901 182.675 679.768 182.504C679.427 181.139 679.256 179.219 679.256 176.744C685.4 176.915 690.136 177 693.464 177C696.963 177 701.699 176.915 707.672 176.744C707.672 179.304 707.459 181.224 707.032 182.504C704.045 182.675 701.997 183.4 700.888 184.68C699.864 185.875 699.352 188.307 699.352 191.976V225.256C699.352 227.987 699.608 230.077 700.12 231.528C700.632 232.893 701.571 233.875 702.936 234.472C704.387 234.984 706.52 235.24 709.336 235.24H710.104ZM809.913 242.152C802.574 242.152 796.089 240.787 790.457 238.056C784.825 235.325 780.43 231.485 777.273 226.536C774.201 221.587 772.665 215.827 772.665 209.256C772.665 202.771 774.201 197.011 777.273 191.976C780.43 186.941 784.825 183.059 790.457 180.328C796.174 177.512 802.745 176.104 810.169 176.104C817.508 176.104 823.993 177.469 829.625 180.2C835.257 182.931 839.609 186.813 842.681 191.848C845.838 196.797 847.417 202.515 847.417 209C847.417 215.571 845.838 221.373 842.681 226.408C839.609 231.357 835.214 235.24 829.497 238.056C823.865 240.787 817.337 242.152 809.913 242.152ZM811.705 236.264C818.617 236.264 824.078 233.96 828.089 229.352C832.185 224.744 834.233 218.6 834.233 210.92C834.233 205.373 833.124 200.424 830.905 196.072C828.686 191.635 825.572 188.179 821.561 185.704C817.636 183.229 813.198 181.992 808.249 181.992C801.337 181.992 795.876 184.339 791.865 189.032C787.854 193.64 785.849 199.741 785.849 207.336C785.849 213.053 786.958 218.131 789.177 222.568C791.396 226.92 794.468 230.291 798.393 232.68C802.318 235.069 806.756 236.264 811.705 236.264ZM918.628 212.84C923.151 212.84 926.82 211.731 929.636 209.512C932.537 207.293 933.988 203.624 933.988 198.504C933.988 193.64 932.452 189.8 929.38 186.984C926.393 184.083 921.785 182.632 915.556 182.632C913.935 182.632 912.057 182.888 909.924 183.4V224.616C909.924 228.627 910.692 231.4 912.228 232.936C913.764 234.472 916.409 235.325 920.164 235.496C920.591 236.776 920.804 238.696 920.804 241.256C916.025 241.085 911.076 241 905.956 241C899.471 241 894.095 241.085 889.828 241.256C889.828 238.611 890.041 236.691 890.468 235.496C893.455 235.325 895.46 234.643 896.484 233.448C897.593 232.168 898.148 229.693 898.148 226.024V191.848C898.148 189.373 897.935 187.496 897.508 186.216C897.081 184.936 896.313 184.04 895.204 183.528C894.18 183.016 892.601 182.675 890.468 182.504C890.041 181.224 889.828 179.304 889.828 176.744C897.849 176.915 903.097 177 905.572 177L920.932 176.744C929.721 176.744 936.164 178.579 940.26 182.248C944.356 185.917 946.404 190.611 946.404 196.328C946.404 200.424 945.423 204.179 943.46 207.592C941.497 211.005 938.553 213.736 934.628 215.784C930.788 217.832 926.137 218.856 920.676 218.856C917.348 218.856 914.745 218.557 912.868 217.96C912.697 216.765 912.612 215.869 912.612 215.272C912.612 214.163 912.74 213.224 912.996 212.456C914.276 212.712 916.153 212.84 918.628 212.84ZM1041.03 222.824C1043.33 223.251 1045.21 224.189 1046.66 225.64C1045.12 229.651 1043.97 234.813 1043.2 241.128L1018.5 241C1006.21 241 996.312 241.085 988.803 241.256C988.803 238.611 989.016 236.691 989.443 235.496C991.576 235.325 993.155 234.984 994.179 234.472C995.288 233.96 996.056 233.021 996.483 231.656C996.91 230.291 997.123 228.243 997.123 225.512V191.848C997.123 189.373 996.867 187.496 996.355 186.216C995.928 184.936 995.16 184.04 994.051 183.528C993.027 183.016 991.491 182.675 989.443 182.504C989.016 181.224 988.803 179.304 988.803 176.744C994.947 176.915 1001.65 177 1008.9 177C1024.6 177 1035.1 176.915 1040.39 176.744C1041.33 184.765 1042.14 190.056 1042.82 192.616C1041.37 193.555 1039.45 194.024 1037.06 194.024C1036.72 190.44 1035.22 187.624 1032.58 185.576C1030.02 183.528 1025.45 182.504 1018.88 182.504H1008.9V206.056H1015.3C1019.82 206.056 1022.94 205.544 1024.64 204.52C1026.44 203.496 1027.37 201.619 1027.46 198.888C1029.34 198.291 1031.3 197.992 1033.35 197.992C1033.18 200.125 1033.09 203.709 1033.09 208.744C1033.09 214.205 1033.18 217.917 1033.35 219.88C1031.04 219.88 1029.17 219.624 1027.72 219.112C1027.46 216.296 1026.44 214.376 1024.64 213.352C1022.94 212.328 1019.82 211.816 1015.3 211.816H1008.9V225.256C1008.9 227.987 1009.16 230.077 1009.67 231.528C1010.26 232.893 1011.25 233.875 1012.61 234.472C1014.06 234.984 1016.2 235.24 1019.01 235.24H1019.78C1024.73 235.24 1028.53 234.813 1031.17 233.96C1033.9 233.107 1035.91 231.869 1037.19 230.248C1038.55 228.541 1039.83 226.067 1041.03 222.824ZM1142.26 226.024C1144.56 229.437 1146.91 231.869 1149.3 233.32C1151.77 234.685 1154.8 235.453 1158.39 235.624C1158.39 238.099 1158.22 239.891 1157.87 241C1150.62 241 1144.48 241.299 1139.44 241.896C1138.84 240.872 1137.69 239.08 1135.99 236.52L1130.23 227.176C1127.07 221.885 1122.89 217.576 1117.68 214.248L1113.59 214.376L1109.87 214.248V225.896C1109.87 228.712 1110.09 230.803 1110.51 232.168C1110.94 233.533 1111.62 234.472 1112.56 234.984C1113.59 235.496 1115.12 235.795 1117.17 235.88C1117.51 236.904 1117.68 238.696 1117.68 241.256C1114.52 241.085 1109.87 241 1103.73 241C1099.21 241 1094.56 241.085 1089.78 241.256C1089.78 238.867 1089.99 237.075 1090.42 235.88C1092.55 235.709 1094.13 235.368 1095.15 234.856C1096.26 234.344 1097.03 233.448 1097.46 232.168C1097.88 230.888 1098.1 228.968 1098.1 226.408V191.72C1098.1 188.051 1097.59 185.619 1096.56 184.424C1095.54 183.229 1093.49 182.547 1090.42 182.376C1089.99 181.096 1089.78 179.219 1089.78 176.744C1093.02 176.915 1097.71 177 1103.86 177L1113.07 176.872C1117.51 176.701 1120.88 176.616 1123.19 176.616C1131.38 176.616 1137.56 178.195 1141.75 181.352C1145.93 184.509 1148.02 188.563 1148.02 193.512C1148.02 198.461 1146.44 202.557 1143.28 205.8C1140.12 208.957 1135.73 211.091 1130.1 212.2C1132.23 213.48 1133.98 214.973 1135.35 216.68C1136.8 218.301 1139.1 221.416 1142.26 226.024ZM1114.74 207.976C1120.88 207.976 1125.92 206.909 1129.84 204.776C1133.77 202.557 1135.73 199.357 1135.73 195.176C1135.73 186.472 1129.76 182.12 1117.81 182.12C1115.08 182.12 1112.43 182.376 1109.87 182.888V207.592C1111.67 207.848 1113.29 207.976 1114.74 207.976Z" fill="black"/>
<defs>
<clipPath id="clip0_231_527">
<rect width="170" height="170" fill="white" transform="translate(0 29)"/>
</clipPath>
</defs>
</svg>
