<svg width="390" height="390" viewBox="0 0 390 390" fill="none" xmlns="http://www.w3.org/2000/svg">
<path d="M309.562 79.7875C294.662 64.7417 276.917 52.812 257.36 44.6934C237.802 36.5748 216.825 32.4299 195.65 32.5C106.925 32.5 34.6125 104.813 34.6125 193.538C34.6125 221.975 42.0875 249.6 56.0625 273.975L33.3125 357.5L118.625 335.075C142.188 347.913 168.675 354.738 195.65 354.738C284.375 354.738 356.688 282.425 356.688 193.7C356.688 150.638 339.95 110.175 309.562 79.7875ZM195.65 327.438C171.6 327.438 148.037 320.938 127.4 308.75L122.525 305.825L71.825 319.15L85.3125 269.75L82.0625 264.713C68.6977 243.377 61.6025 218.713 61.5875 193.538C61.5875 119.763 121.712 59.6375 195.487 59.6375C231.237 59.6375 264.875 73.6125 290.063 98.9625C302.536 111.375 312.421 126.141 319.144 142.404C325.867 158.667 329.293 176.103 329.225 193.7C329.55 267.475 269.425 327.438 195.65 327.438ZM269.1 227.338C265.037 225.388 245.212 215.638 241.637 214.175C237.9 212.875 235.3 212.225 232.538 216.125C229.775 220.188 222.137 229.288 219.862 231.888C217.587 234.65 215.15 234.975 211.087 232.863C207.025 230.913 194.025 226.525 178.75 212.875C166.725 202.15 158.762 188.988 156.325 184.925C154.05 180.863 156 178.75 158.112 176.638C159.9 174.85 162.175 171.925 164.125 169.65C166.075 167.375 166.888 165.588 168.188 162.988C169.488 160.225 168.837 157.95 167.862 156C166.887 154.05 158.762 134.225 155.512 126.1C152.262 118.3 148.85 119.275 146.413 119.113H138.612C135.85 119.113 131.625 120.088 127.887 124.15C124.312 128.213 113.913 137.963 113.913 157.788C113.913 177.613 128.375 196.788 130.325 199.388C132.275 202.15 158.762 242.775 199.062 260.163C208.65 264.388 216.125 266.825 221.975 268.613C231.562 271.7 240.338 271.213 247.325 270.238C255.125 269.1 271.212 260.488 274.462 251.063C277.875 241.638 277.875 233.675 276.738 231.888C275.6 230.1 273.162 229.288 269.1 227.338Z" fill="white"/>
</svg>
